<svg width="382" height="659" viewBox="0 0 382 659" fill="none" xmlns="http://www.w3.org/2000/svg">
<path opacity="1" d="M243.363 644.803C299.409 592.562 380.529 437.332 382.004 317.924C368.73 322.401 343.656 335.835 333.332 379.12C327.432 404.494 312.683 462.706 255.162 458.228C175.517 450.765 187.317 300.012 311.209 313.446C370.205 319.416 379.054 277.623 379.054 271.653C365.78 277.623 346.606 274.638 328.907 273.146C216.815 259.712 163.718 323.894 163.718 398.524C163.718 443.302 191.741 480.617 224.189 501.513C241.888 511.961 228.614 523.902 216.815 513.454C182.892 488.08 143.07 456.735 143.07 386.583C143.07 270.16 259.587 219.412 287.61 198.516C328.907 167.171 348.081 141.797 337.757 97.0189C321.533 126.871 281.71 153.738 252.212 168.664C172.568 211.949 109.147 274.638 109.147 365.687C109.147 438.824 140.12 477.632 178.467 508.976C187.317 516.439 178.467 525.395 166.668 516.439C107.672 470.169 87.0232 416.435 87.0232 346.283C87.0232 214.934 250.738 95.5263 176.992 0C178.467 97.0189 54.5753 182.097 54.5753 341.805C54.5753 413.45 82.5985 485.095 162.243 541.813C209.44 574.651 215.34 613.458 209.44 647.788C206.49 667.192 228.614 658.236 243.363 644.803ZM35.4016 226.875C42.7761 138.812 0.00390625 111.945 0.00390625 111.945C0.00390625 111.945 10.3282 149.26 2.95371 244.786C-1.471 310.461 20.6526 361.209 33.9267 392.554C35.4016 397.031 42.7761 394.046 41.3012 389.568C29.502 343.298 29.502 300.012 35.4016 226.875Z" fill="white" fill-opacity="1"/>
</svg>
