<svg width="311" height="536" viewBox="0 0 311 536" fill="none" xmlns="http://www.w3.org/2000/svg">
<path opacity="0.2" d="M197.714 524.164C243.249 481.721 309.153 355.606 310.352 258.594C299.567 262.232 279.197 273.146 270.809 308.313C266.016 328.928 254.033 376.221 207.3 372.583C142.594 366.52 152.18 244.042 252.835 254.956C300.765 259.807 307.955 225.853 307.955 221.002C297.171 225.853 281.593 223.428 267.214 222.215C176.145 211.301 133.008 263.445 133.008 324.077C133.008 360.456 155.775 390.773 182.137 407.75C196.516 416.238 185.732 425.939 176.145 417.451C148.585 396.836 116.232 371.37 116.232 314.376C116.232 219.79 210.895 178.56 233.662 161.583C267.214 136.117 282.791 115.502 274.404 79.1227C261.223 103.376 228.869 125.203 204.904 137.33C140.197 172.496 88.6719 223.427 88.6719 297.399C88.6719 356.818 113.836 388.347 144.991 413.813C152.18 419.876 144.991 427.152 135.404 419.876C87.4736 382.284 70.6978 338.629 70.6978 281.634C70.6978 174.922 203.706 77.9101 143.792 0.300781C144.991 79.1227 44.3359 148.244 44.3359 277.997C44.3359 336.204 67.103 394.41 131.81 440.491C170.154 467.169 174.947 498.698 170.154 526.589C167.758 542.353 185.732 535.077 197.714 524.164ZM28.7584 184.623C34.7498 113.077 0 91.2492 0 91.2492C0 91.2492 8.38788 121.565 2.39654 199.175C-1.19827 252.531 16.7758 293.761 27.5602 319.226C28.7584 322.864 34.7498 320.439 33.5515 316.801C23.9654 279.209 23.9654 244.042 28.7584 184.623Z" fill="#253846" fill-opacity="0.25"/>
</svg>
