<svg width="162" height="75" viewBox="0 0 162 75" fill="none" xmlns="http://www.w3.org/2000/svg">
<path d="M27.8404 73.0698C34.4263 67.0826 43.407 49.7198 43.7064 36.2487C42.2096 36.548 39.216 38.3442 38.3179 43.1339C37.7192 45.8282 35.923 52.7134 29.3372 52.1147C20.3564 51.2166 21.5538 34.1532 35.6237 35.65C42.2096 36.2487 43.407 31.4589 43.407 30.8602C41.9102 31.4589 39.8147 31.1596 37.7192 30.8602C24.8468 29.3634 18.8596 36.548 18.8596 44.9301C18.8596 50.0192 22.1525 54.2102 25.7449 56.6051C27.8404 57.8025 26.3436 58.9999 24.8468 58.1019C20.9551 55.4076 16.4647 51.516 16.4647 43.7327C16.4647 30.5609 29.9359 24.8731 32.9295 22.7775C37.4198 19.4846 39.8147 16.7904 38.6173 11.7013C36.8211 14.9942 32.3307 17.9878 29.0378 19.784C20.057 24.5737 12.8724 31.7583 12.8724 41.9365C12.8724 50.0192 16.4647 54.5096 20.6558 58.1019C21.5538 58.9999 20.6558 59.898 19.4583 58.9999C12.5731 53.6115 10.4776 47.325 10.4776 39.5416C10.4776 24.5737 29.0378 11.4019 20.6558 0.625C20.6558 11.4019 6.58589 20.9814 6.58589 38.9429C6.58589 47.0256 9.87884 55.1083 18.8596 61.3948C24.2481 65.2865 24.8468 69.4775 24.2481 73.3692C23.6493 75.4647 26.3436 74.5666 27.8404 73.0698ZM4.19102 26.0705C5.0891 16.1917 0 13.1981 0 13.1981C0 13.1981 1.19744 17.3891 0.299359 28.166C-0.299358 35.65 2.39487 41.3378 3.89166 44.9301C4.19102 45.5288 4.78974 44.9301 4.78974 44.6307C3.5923 39.2423 3.5923 34.4525 4.19102 26.0705Z" fill="#E84224"/>
<path d="M152.677 44.0365C152.677 39.5461 150.581 37.75 146.091 37.75C142.798 37.75 139.505 38.9474 139.505 40.1448C139.505 40.4442 139.804 41.6416 140.703 42.5397C142.199 41.6416 143.696 41.0429 145.492 41.0429C148.486 41.0429 148.486 42.5397 148.486 44.0365C143.696 44.0365 138.607 44.9346 138.607 49.7243C138.607 53.0173 140.403 54.8134 143.995 54.8134C146.39 54.8134 147.588 53.9153 149.085 53.0173C149.683 55.1128 152.378 54.8134 153.874 53.9153C153.276 53.0172 153.276 52.1192 153.276 50.0237V44.0365H152.677ZM148.186 50.323C147.288 51.2211 146.39 51.8198 144.894 51.8198C141.9 51.8198 141.9 48.5269 143.696 47.3294C144.894 46.7307 146.69 46.4314 148.186 46.4314V50.323ZM108.072 44.0365C108.072 39.5461 105.977 37.75 101.487 37.75C98.1936 37.75 94.9006 38.9474 94.9006 40.1448C94.9006 40.4442 95.2 41.6416 96.0981 42.5397C97.5949 41.6416 99.0917 41.0429 100.888 41.0429C103.881 41.0429 103.881 42.5397 103.881 44.0365C99.0917 44.0365 94.0026 44.9346 94.0026 49.7243C94.0026 53.0173 95.7987 54.8134 99.391 54.8134C101.786 54.8134 102.983 53.9153 104.48 53.0173C105.079 55.1128 107.773 54.8134 109.27 53.9153C108.671 53.0172 108.671 52.1192 108.671 50.0237V44.0365H108.072ZM103.582 50.323C102.684 51.2211 101.786 51.8198 100.289 51.8198C97.2955 51.8198 97.2955 48.5269 99.0917 47.3294C100.289 46.7307 102.085 46.4314 103.582 46.4314V50.323ZM61.3725 31.1641H55.0859V54.514C55.3853 54.514 56.5827 54.8134 56.8821 54.514C58.6782 54.514 59.8757 53.616 59.8757 51.8198V45.8326H61.6718C67.0603 45.8326 70.9519 43.4378 70.9519 37.75C70.9519 32.6609 66.4616 31.1641 61.3725 31.1641ZM59.8757 42.8391V34.457C63.1686 34.1577 66.1622 34.7564 66.1622 38.3487C66.1622 42.8391 63.1686 42.8391 59.8757 42.8391ZM78.4359 52.1192C78.4359 53.9153 77.5378 54.514 75.4423 54.8134C75.143 54.8134 73.9455 54.8134 73.6462 54.8134V40.7435C73.6462 38.9474 74.5443 38.3487 76.6398 38.0493C76.9391 38.0493 78.1366 38.0493 78.4359 38.0493V52.1192ZM131.123 45.8326C131.123 43.7371 131.123 43.1384 130.824 42.8391C130.225 40.7435 126.034 41.3423 126.034 43.4378V52.4185C126.034 54.2147 125.136 54.8134 123.04 55.1128C122.741 55.1128 121.544 55.1128 121.244 55.1128V46.4314C121.244 44.3358 121.244 43.7371 120.945 43.4378C120.346 41.3423 116.155 41.941 116.155 44.0365V53.0173C116.155 54.8134 115.257 55.4121 113.162 55.7115C112.862 55.7115 111.665 55.7115 111.365 55.7115V39.2467C113.162 38.9474 115.257 38.9474 115.856 40.7435C117.652 38.0493 123.938 37.4506 125.136 41.3423C126.333 39.2467 128.728 38.3487 131.123 38.648C135.015 38.9474 135.613 42.2403 135.613 46.4314V53.3166C135.613 55.1128 134.715 55.7115 132.62 56.0108C132.32 56.0108 131.123 56.0108 130.824 56.0108L131.123 45.8326ZM82.0282 54.514C82.3276 54.514 83.525 54.8134 83.8244 54.514C85.6205 54.514 86.818 53.616 86.818 51.8198V43.4378C86.818 41.6416 89.5122 40.4442 91.9071 42.2403C92.5058 41.3423 93.1045 39.8455 93.1045 38.9474C93.1045 37.1512 89.2128 36.2532 86.818 39.2467C86.5186 37.4506 84.1237 37.4506 82.3276 37.75V54.514H82.0282ZM161.059 31.4634C160.76 31.4634 159.861 31.4634 159.562 31.4634C157.467 31.4634 156.569 32.3615 156.569 34.1576V54.8134C156.868 54.8134 158.065 55.1128 158.365 54.8134C160.161 54.8134 161.358 53.9153 161.358 52.1192L161.059 31.4634ZM76.041 31.1641C74.8436 31.1641 73.9455 32.0621 73.6462 33.2596C73.3468 34.7564 74.8436 36.2532 76.3404 35.9538C77.5378 35.6544 78.4359 34.457 78.1366 32.9602C77.8372 31.7628 76.9391 31.1641 76.041 31.1641Z" fill="white"/>
</svg>
