<svg xmlns="http://www.w3.org/2000/svg" width="106" height="106" viewBox="0 0 106 106">
  <g id="Group_1" data-name="Group 1" transform="translate(-712 -583)">
    <rect id="Rectangle_1" data-name="Rectangle 1" width="106" height="106" transform="translate(712 583)" fill="none"/>
    <path id="Path_1" data-name="Path 1" d="M27.1,71.207,26.789,71a5.208,5.208,0,0,0-7.232,1.36L6.35,91.665a5.189,5.189,0,0,0,1.363,7.22l.307.21a5.209,5.209,0,0,0,7.232-1.36L28.458,78.428A5.19,5.19,0,0,0,27.1,71.207Z" transform="translate(720.332 586)" fill="#d7d7d7"/>
    <path id="Path_2" data-name="Path 2" d="M39.735,71.207,39.428,71a5.209,5.209,0,0,0-7.232,1.36L18.989,91.665a5.19,5.19,0,0,0,1.362,7.22l.307.21a5.208,5.208,0,0,0,7.232-1.36L41.1,78.428A5.19,5.19,0,0,0,39.735,71.207Z" transform="translate(720.332 586)" fill="#eaeaea"/>
    <path id="Path_3" data-name="Path 3" d="M82.97,91.644,69.789,72.437a5.209,5.209,0,0,0-7.218-1.354l-.307.208a5.153,5.153,0,0,0-1.36,7.183L74.086,97.681A5.208,5.208,0,0,0,81.3,99.035l.307-.208A5.154,5.154,0,0,0,82.97,91.644Z" transform="translate(720.332 586)" fill="#d7d7d7"/>
    <path id="Path_4" data-name="Path 4" d="M70.357,91.644,57.176,72.437a5.21,5.21,0,0,0-7.218-1.354l-.306.208a5.153,5.153,0,0,0-1.36,7.183L61.472,97.681a5.209,5.209,0,0,0,7.218,1.354L69,98.827A5.153,5.153,0,0,0,70.357,91.644Z" transform="translate(720.332 586)" fill="#eaeaea"/>
    <path id="Path_6" data-name="Path 6" d="M73.923,42.221a28.923,28.923,0,1,1-57.846,0c-.067-7.353-11.476-7.36-11.409,0A40.817,40.817,0,0,0,45,82.553c22.106.2,40.134-18.531,40.332-40.332C85.4,34.862,73.99,34.868,73.923,42.221Z" transform="translate(720.332 586)" fill="#e84325"/>
    <path id="Path_7" data-name="Path 7" d="M16.077,40.334a28.923,28.923,0,1,1,57.846,0c.067,7.353,11.476,7.36,11.409,0A40.819,40.819,0,0,0,45,0C22.894-.2,4.867,18.533,4.668,40.334,4.6,47.693,16.01,47.687,16.077,40.334Z" transform="translate(720.332 586)" fill="#e84325"/>
  </g>
</svg>
