<svg xmlns="http://www.w3.org/2000/svg" width="106" height="106" viewBox="0 0 106 106">
  <g id="Group_1" data-name="Group 1" transform="translate(-713 -526)">
    <rect id="Rectangle_1" data-name="Rectangle 1" width="106" height="106" transform="translate(713 526)" fill="none"/>
    <path id="Path_10" data-name="Path 10" d="M5.5,60.663a3.8,3.8,0,0,1,4.413-1.333c.023.009.046.017.069.025l27.082,9.016c-.006.218,0,.437.013.657a7.068,7.068,0,0,0,6.337,6.586l16.322,1.7a1.879,1.879,0,0,0,.388-3.737L43.8,71.877a3.326,3.326,0,0,1,.127-6.628L65.6,63.836a12.751,12.751,0,0,1,6.987,1.556l28.579,15.738L93.424,96.736l-7.179-6.263a13.448,13.448,0,0,0-11.081-3.142l-24,3.988a17.364,17.364,0,0,1-12.416-3.088L6.079,65.731A3.806,3.806,0,0,1,5.5,60.663Z" transform="translate(710.211 529)" fill="#fff"/>
    <path id="Path_11" data-name="Path 11" d="M43.8,71.878a3.326,3.326,0,0,1,.127-6.628l4.819-.314v7.456Z" transform="translate(710.211 529)" fill="#fff"/>
    <path id="Path_12" data-name="Path 12" d="M5.5,60.664a3.8,3.8,0,0,1,4.413-1.333l.069.024,27.082,9.016c-.006.218,0,.437.013.657a7.068,7.068,0,0,0,6.337,6.586l5.335.554v15.3a17.354,17.354,0,0,1-9.995-3.24L6.079,65.731A3.806,3.806,0,0,1,5.5,60.664Z" transform="translate(710.211 529)" fill="#fff"/>
    <path id="Path_13" data-name="Path 13" d="M93.948,100,81.491,91.486l13.261-19.4L107.209,80.6Z" transform="translate(710.211 529)" fill="#eaeaea"/>
    <path id="Path_14" data-name="Path 14" d="M107.211,80.6l-6.64,9.715-12.264-8.8,6.447-9.432Z" transform="translate(710.211 529)" fill="#d7d7d7"/>
  </g>
</svg>
