<svg xmlns="http://www.w3.org/2000/svg" width="60.743" height="52.098" viewBox="0 0 60.743 52.098">
  <path id="Path_8" data-name="Path 8" d="M44.572,51.219a2.006,2.006,0,0,0,3.319,0C54.235,41.859,76.6,30.236,76.6,15.185,76.6,4.806,69.8,0,61.416,0A15.185,15.185,0,0,0,46.231,15.185,15.186,15.186,0,0,0,31.045,0C22.659,0,15.86,4.806,15.86,15.185,15.861,30.236,38.228,41.859,44.572,51.219Z" transform="translate(-15.86 0)" fill="#e84325"/>
  <path id="Path_9" data-name="Path 9" d="M61.418,0A15.186,15.186,0,0,0,46.232,15.185c0-.037-.005-.073-.005-.11V52.1a1.989,1.989,0,0,0,1.665-.878C54.236,41.859,76.6,30.235,76.6,15.184,76.6,4.806,69.8,0,61.418,0Z" transform="translate(-15.86 0)" fill="#e84325"/>
</svg>
