<svg xmlns="http://www.w3.org/2000/svg" width="31.034" height="31.034" viewBox="0 0 31.034 31.034">
  <g id="Group_1" data-name="Group 1" transform="translate(-26.483 -5.172)">
    <path id="Path_6" data-name="Path 6" d="M53.948,27.706A3.437,3.437,0,0,1,56.6,25.982a15.787,15.787,0,0,0,0-10.586,3.41,3.41,0,0,1-2.655-1.724,3.554,3.554,0,0,1-.138-3.224,15.369,15.369,0,0,0-9-5.276,3.4,3.4,0,0,1-5.621,0,15.547,15.547,0,0,0-9,5.276,3.61,3.61,0,0,1-.138,3.224A3.437,3.437,0,0,1,27.4,15.4a15.787,15.787,0,0,0,0,10.586,3.41,3.41,0,0,1,2.655,1.724,3.554,3.554,0,0,1,.138,3.224,15.368,15.368,0,0,0,9,5.276,3.4,3.4,0,0,1,5.621,0,15.547,15.547,0,0,0,9-5.276A3.61,3.61,0,0,1,53.948,27.706Z" fill="#fff"/>
    <path id="Path_7" data-name="Path 7" d="M42,29.31a8.621,8.621,0,1,0-8.621-8.621A8.621,8.621,0,0,0,42,29.31Z" fill="#e84325"/>
  </g>
</svg>
