<svg xmlns="http://www.w3.org/2000/svg" width="106" height="106" viewBox="0 0 106 106">
  <g id="Group_1" data-name="Group 1" transform="translate(-601 -563)">
    <g id="Group_289479" data-name="Group 289479" transform="translate(611.931 566)">
      <path id="Path_1" data-name="Path 1" d="M79.931,44.827V96.551H50.621L47.172,100H36.828l-3.448-3.448H4.069V44.827Z" fill="#d7d7d7"/>
      <path id="Path_2" data-name="Path 2" d="M27.5,35.431a20.386,20.386,0,0,0-6.19-.948V79.31A20.684,20.684,0,0,1,42,100a20.684,20.684,0,0,1,20.69-20.69V34.482a20.385,20.385,0,0,0-6.19.948,21.3,21.3,0,0,1-4.155,3.155v2.793A1.729,1.729,0,0,1,54.068,43.1v3.448a1.729,1.729,0,0,1-1.724,1.724H31.654a1.729,1.729,0,0,1-1.724-1.724V43.1a1.729,1.729,0,0,1,1.724-1.724V38.586a20.524,20.524,0,0,1-4.138-3.155" fill="#fff"/>
      <path id="Path_3" data-name="Path 3" d="M52.345,48.276a10.345,10.345,0,0,1-20.69,0" fill="#253846"/>
      <path id="Path_4" data-name="Path 4" d="M62.689,20.689a20.69,20.69,0,1,0-31.034,17.9v2.793H52.344V38.586A20.679,20.679,0,0,0,62.689,20.689Z" fill="#e84325"/>
      <path id="Path_5" data-name="Path 5" d="M52.346,41.379H31.656A1.724,1.724,0,0,0,29.932,43.1v3.448a1.724,1.724,0,0,0,1.724,1.724h20.69a1.724,1.724,0,0,0,1.724-1.724V43.1A1.724,1.724,0,0,0,52.346,41.379Z" fill="#253846"/>
      <path id="Path_8" data-name="Path 8" d="M43.833,56.89h-3.67V96.041h3.67Z" fill="#253846"/>
      <path id="Path_9" data-name="Path 9" d="M42,100A20.684,20.684,0,0,0,21.31,79.31v-43.1L10.965,39.655V86.207S31.913,81.034,42,100Z" fill="#eaeaea"/>
      <path id="Path_10" data-name="Path 10" d="M73.034,86.207V39.655L62.689,36.207v43.1A20.684,20.684,0,0,0,42,100C52.086,81.034,73.034,86.207,73.034,86.207Z" fill="#eaeaea"/>
    </g>
    <rect id="Rectangle_1" data-name="Rectangle 1" width="106" height="106" transform="translate(601 563)" fill="none"/>
  </g>
</svg>
