<svg xmlns="http://www.w3.org/2000/svg" width="106" height="106" viewBox="0 0 106 106">
  <g id="Group_2" data-name="Group 2" transform="translate(-842 -583)">
    <rect id="Rectangle_1" data-name="Rectangle 1" width="106" height="106" transform="translate(842 583)" fill="none"/>
    <g id="Group_1" data-name="Group 1" transform="translate(-142 3)">
      <g id="Group_289488" data-name="Group 289488" transform="translate(993.085 583)">
        <rect id="Rectangle_2" data-name="Rectangle 2" width="65.736" height="81.075" transform="translate(12.583 13.146)" fill="#fcfdfd"/>
        <path id="Path_1" data-name="Path 1" d="M75.268,6.338H47.127a3.127,3.127,0,0,1-6.254,0H12.732a7.82,7.82,0,0,0-7.817,7.805V92.195A7.82,7.82,0,0,0,12.732,100H75.268a7.82,7.82,0,0,0,7.817-7.805V14.143A7.82,7.82,0,0,0,75.268,6.338Zm0,84.3A1.562,1.562,0,0,1,73.7,92.195H14.3a1.562,1.562,0,0,1-1.563-1.561V15.7A1.562,1.562,0,0,1,14.3,14.143H73.7A1.562,1.562,0,0,1,75.268,15.7Z" fill="#d7d7d7"/>
        <path id="Path_2" data-name="Path 2" d="M23.376,71.83a1.561,1.561,0,0,1-1.165-2.6L34.686,55.177a1.556,1.556,0,0,1,1.811-.384l15.68,7.139.181,3.512L36.252,58.112,24.541,71.305A1.551,1.551,0,0,1,23.376,71.83Z" fill="#253846"/>
        <path id="Path_3" data-name="Path 3" d="M23.576,74.648A4.577,4.577,0,1,0,19,70.071,4.577,4.577,0,0,0,23.576,74.648Z" fill="#e84325"/>
        <path id="Path_4" data-name="Path 4" d="M36.252,60.562a4.577,4.577,0,1,0-4.577-4.577A4.578,4.578,0,0,0,36.252,60.562Z" fill="#e84325"/>
        <path id="Path_5" data-name="Path 5" d="M53.154,68.311a4.577,4.577,0,1,0-4.577-4.577A4.577,4.577,0,0,0,53.154,68.311Z" transform="translate(-0.797 -0.492)" fill="#e84325"/>
        <path id="Path_7" data-name="Path 7" d="M53.411,3.169h-4a6.208,6.208,0,0,0-10.826,0h-4a7.892,7.892,0,0,0-7.843,7.923v6.338a1.576,1.576,0,0,0,1.569,1.585h31.37a1.576,1.576,0,0,0,1.569-1.585V11.091A7.892,7.892,0,0,0,53.411,3.169ZM44,7.922a1.585,1.585,0,1,1,1.569-1.585A1.577,1.577,0,0,1,44,7.922Z" fill="#b9bbc1"/>
      </g>
    </g>
  </g>
</svg>
