<svg xmlns="http://www.w3.org/2000/svg" width="95.667" height="43.861" viewBox="0 0 95.667 43.861">
  <g id="piramal-logo" transform="translate(-3.1 -0.7)">
    <g id="Group_1" data-name="Group 1" transform="translate(3.1 0.7)">
      <path id="Path_1" data-name="Path 1" d="M19.607,43.653c3.9-3.55,9.229-13.844,9.407-21.831-.887.177-2.662,1.242-3.195,4.082-.355,1.6-1.42,5.68-5.325,5.325-5.325-.532-4.615-10.649,3.727-9.762,3.9.355,4.615-2.485,4.615-2.84a7.176,7.176,0,0,1-3.372,0C17.832,17.739,14.282,22,14.282,26.968a8.626,8.626,0,0,0,4.082,6.922c1.242.71.355,1.42-.532.887-2.307-1.6-4.97-3.9-4.97-8.52,0-7.81,7.987-11.182,9.762-12.424,2.662-1.952,4.082-3.55,3.372-6.567-1.065,1.952-3.727,3.727-5.68,4.792-5.325,2.84-9.584,7.1-9.584,13.134a11.665,11.665,0,0,0,4.615,9.584c.532.532,0,1.065-.71.532-4.082-3.195-5.325-6.922-5.325-11.537,0-8.874,11-16.684,6.035-23.074C15.347,7.09,7,12.769,7,23.419,7,28.211,8.957,33,14.282,36.73c3.195,2.307,3.55,4.792,3.195,7.1-.355,1.242,1.242.71,2.13-.177M5.585,15.787C6.117,9.929,3.1,8.155,3.1,8.155s.71,2.485.177,8.874a20.173,20.173,0,0,0,2.13,9.939c.177.355.532,0,.532-.177C5.23,23.6,5.23,20.756,5.585,15.787Z" transform="translate(-3.1 -0.7)" fill="#e84224"/>
      <path id="Path_2" data-name="Path 2" d="M79.362,18.532c0-2.662-1.242-3.727-3.9-3.727-1.952,0-3.9.71-3.9,1.42a2.532,2.532,0,0,0,.71,1.42,5.363,5.363,0,0,1,2.84-.887c1.775,0,1.775.887,1.775,1.775-2.84,0-5.857.532-5.857,3.372,0,1.952,1.065,3.017,3.195,3.017a5.123,5.123,0,0,0,3.017-1.065c.355,1.242,1.952,1.065,2.84.532-.355-.532-.355-1.065-.355-2.307v-3.55h-.355ZM76.7,22.259a2.543,2.543,0,0,1-1.952.887c-1.775,0-1.775-1.952-.71-2.662a6.484,6.484,0,0,1,2.662-.532ZM52.916,18.532c0-2.662-1.242-3.727-3.9-3.727-1.952,0-3.9.71-3.9,1.42a2.532,2.532,0,0,0,.71,1.42,5.363,5.363,0,0,1,2.84-.887c1.775,0,1.775.887,1.775,1.775-2.84,0-5.857.532-5.857,3.372,0,1.952,1.065,3.017,3.195,3.017a5.123,5.123,0,0,0,3.017-1.065c.355,1.242,1.952,1.065,2.84.532-.355-.532-.355-1.065-.355-2.307v-3.55h-.355Zm-2.662,3.727a2.543,2.543,0,0,1-1.952.887c-1.775,0-1.775-1.952-.71-2.662a6.484,6.484,0,0,1,2.662-.532ZM25.227,10.9H21.5V24.744c.177,0,.887.177,1.065,0,1.065,0,1.775-.532,1.775-1.6V19.6H25.4c3.195,0,5.5-1.42,5.5-4.792C30.907,11.787,28.245,10.9,25.227,10.9Zm-.887,6.922v-4.97c1.952-.177,3.727.177,3.727,2.307C28.067,17.822,26.292,17.822,24.34,17.822Zm11,5.5c0,1.065-.532,1.42-1.775,1.6H32.5V16.58c0-1.065.532-1.42,1.775-1.6h1.065ZM66.582,19.6c0-1.242,0-1.6-.177-1.775-.355-1.242-2.84-.887-2.84.355V23.5c0,1.065-.532,1.42-1.775,1.6H60.725V19.952c0-1.242,0-1.6-.177-1.775-.355-1.242-2.84-.887-2.84.355v5.325c0,1.065-.532,1.42-1.775,1.6H54.868V15.692c1.065-.177,2.307-.177,2.662.887,1.065-1.6,4.792-1.952,5.5.355a3.481,3.481,0,0,1,3.55-1.6c2.307.177,2.662,2.13,2.662,4.615v4.082c0,1.065-.532,1.42-1.775,1.6H66.4l.177-6.035ZM37.474,24.744c.177,0,.887.177,1.065,0,1.065,0,1.775-.532,1.775-1.6v-4.97c0-1.065,1.6-1.775,3.017-.71a4.367,4.367,0,0,0,.71-1.952c0-1.065-2.307-1.6-3.727.177-.177-1.065-1.6-1.065-2.662-.887v9.939ZM84.331,11.077h-.887c-1.242,0-1.775.532-1.775,1.6V24.922c.177,0,.887.177,1.065,0,1.065,0,1.775-.532,1.775-1.6l-.177-12.247ZM33.924,10.9a1.506,1.506,0,0,0-1.42,1.242,1.412,1.412,0,0,0,1.6,1.6,1.476,1.476,0,0,0,1.065-1.775A1.3,1.3,0,0,0,33.924,10.9Z" transform="translate(11.158 7.204)" fill="#fff"/>
    </g>
  </g>
</svg>
